<?xml version="1.0" encoding="UTF-8" standalone="no"?>
<!-- Generator: Avocode 1.1.1 - http://avocode.com -->
<svg xmlns="http://www.w3.org/2000/svg" xmlns:xlink="http://www.w3.org/1999/xlink" width="39" height="24" viewBox="0 0 39 24">
    <desc>Created with Avocode</desc>
    <path d="M34.76792951396507,4.597980756542975C35.98965476653774,3.2910542410262513,36.43,2.82,36.43,2.82C36.43,2.82,34.43,0,34.43,0C34.43,0,24.14595697571142,10.358940816622335,19.3430794636741,15.196797268523234C17.48044952554407,13.32126498195527,4.37,0.12,4.37,0.12C4.37,0.12,4.37,0.12,4.37,0.12C4.37,0.12,3.874570678550717,1.072943133603979,3.384585635359117,2.015414364640882C3.369250471597328,2.030749528402672,0.4,5,0.4,5C0.4,5,18.3,23.88,18.3,23.88C18.3,23.88,18.330643110710884,23.820756652625622,18.54444644789038,23.40740353407862C19.12074546893575,23.826153182464104,19.36,24,19.36,24C19.36,24,19.36,24,19.36,24C19.36,24,38.44,5,38.44,5C38.44,5,36.44,3,36.44,3C36.44,3,35.91937714328161,3.4975539688074044,34.76792951396507,4.597980756542975" fill="#aaa" />
</svg>