<?xml version="1.0" encoding="UTF-8" standalone="no"?>
<!-- Generator: Avocode 1.1.1 - http://avocode.com -->
<svg xmlns="http://www.w3.org/2000/svg" xmlns:xlink="http://www.w3.org/1999/xlink" width="24" height="37" viewBox="0 0 24 37">
    <desc>Created with Avocode</desc>
    <path d="M18.38844290657422,34.221730103806046C19.67216485434791,35.495931246033834,20.18,36,20.18,36C20.18,36,24,34,24,34C24,34,13.642366263802721,23.72301524728813,8.804270420722453,18.922590895755764C10.681839240642525,17.059112648593064,23.88,3.96,23.88,3.96C23.88,3.96,23.88,3.96,23.88,3.96C23.88,3.96,22.90599798540948,3.4536222948017476,21.96375690607735,2.963756906077348C21.927951666107063,2.927951666107062,19,0,19,0C19,0,0.12,17.88,0.12,17.88C0.12,17.88,0.2766321104504379,17.961016608853672,0.8884419668381931,18.277469982847343C0.39075699427688954,19.20878146615513,0,19.94,0,19.94C0,19.94,0,19.94,0,19.94C0,19.94,18,37,18,37C18,37,20,36,20,36C20,36,19.465810905655577,35.410549964861325,18.38844290657422,34.221730103806046" fill="#000" />
</svg>