<?xml version="1.0" encoding="UTF-8" standalone="no"?>
<!-- Generator: Avocode 1.1.1 - http://avocode.com -->
<svg xmlns="http://www.w3.org/2000/svg" xmlns:xlink="http://www.w3.org/1999/xlink" width="24" height="37" viewBox="0 0 24 37">
    <desc>Created with Avocode</desc>
    <path d="M5.611557093425764,34.22173010380606C4.327835145652081,35.49593124603384,3.82,36,3.82,36C3.82,36,0,34,0,34C0,34,10.357633736197283,23.723015247288124,15.19572957927755,18.922590895755764C13.318160759357488,17.059112648593075,0.12,3.96,0.12,3.96C0.12,3.96,0.12,3.96,0.12,3.96C0.12,3.96,1.094002014590518,3.4536222948017468,2.036243093922651,2.9637569060773483C2.0720483338929396,2.9279516661070604,5,0,5,0C5,0,23.88,17.88,23.88,17.88C23.88,17.88,23.723367889549557,17.961016608853676,23.111558033161796,18.27746998284735C23.6092430057231,19.20878146615511,24,19.94,24,19.94C24,19.94,24,19.94,24,19.94C24,19.94,6,37,6,37C6,37,4,36,4,36C4,36,4.534189094344409,35.41054996486134,5.611557093425764,34.22173010380606" fill="#000" />
</svg>