<?xml version="1.0" encoding="UTF-8" standalone="no"?>
<!-- Generator: Avocode 1.1.1 - http://avocode.com -->
<svg xmlns="http://www.w3.org/2000/svg" xmlns:xlink="http://www.w3.org/1999/xlink" width="12" height="24" viewBox="0 0 12 24">
    <desc>Created with Avocode</desc>
    <path d="M 11.33 4.13 L 11.98 0.45 C 10.59 -0.01, 7.36 -0.01, 7.36 -0.01 C 5.38 -0.01, 4.22 0.73, 3.38 1.79 C 2.57 2.82, 2.54 4.45, 2.54 5.51 L 2.54 5.69 L 2.54 6.82 L 2.54 7.94 L -0.02 7.94 L -0.02 11.52 L 2.54 11.52 L 2.54 24 L 7.36 24 L 7.36 11.52 L 11.17 11.52 L 11.46 7.94 L 7.36 7.94 L 7.36 6.82 L 7.36 5.51 L 7.36 5.13 C 7.36 4.16, 8.26 3.82, 9.26 3.82 C 9.26 3.82, 10.27 3.82, 11.33 4.13 Z" fill="#ffffff" />
</svg>