<?xml version="1.0" encoding="UTF-8" standalone="no"?>
<!-- Generator: Avocode 1.1.1 - http://avocode.com -->
<svg xmlns="http://www.w3.org/2000/svg" xmlns:xlink="http://www.w3.org/1999/xlink" width="16" height="16" viewBox="0 0 16 16">
    <desc>Created with Avocode</desc>
    <path d="M6,0C6,0,10,0,10,0C10,0,10,2.735207100591716,9.999999999999998,6.000000000000001C13.264792899408283,6,16,6,16,6C16,6,16,10,16,10C16,10,16,10,16,10C16,10,13.264792899408283,10,9.999999999999998,10C10,13.264792899408283,10,16,10,16C10,16,6,16,6,16C6,16,6,13.264792899408285,6,10.000000000000002C2.7352071005917162,10,0,10,0,10C0,10,0,6,0,6C0,6,2.7352071005917153,6,6,6C6,2.7352071005917153,6,0,6,0" fill="#ffffff" />
</svg>