<?xml version="1.0" encoding="UTF-8" standalone="no"?>
<!-- Generator: Avocode 1.1.1 - http://avocode.com -->
<svg xmlns="http://www.w3.org/2000/svg" xmlns:xlink="http://www.w3.org/1999/xlink" width="28" height="20" viewBox="0 0 28 20">
    <desc>Created with Avocode</desc>
    <path d="M 28.01 9.21 C 27.15 10.17, 25.92 10.54, 24.66 10.51 C 23.24 16.5, 16.98 20, 11.2 20 C 6.7 20, 2.65 17.97, 0 14.24 C 1.34 15.54, 3.18 16.27, 5.06 16.27 C 7.09 16.27, 8.99 15.42, 10.39 13.93 C 9.64 14.04, 8.38 13.7, 8.38 12.74 C 8.38 12.12, 9.02 11.7, 9.52 11.47 C 8.07 11.64, 6.73 11.08, 6.06 9.72 C 6.59 9.13, 7.23 8.99, 7.99 8.93 C 6.4 8.53, 5.17 7.74, 4.86 6.05 C 5.33 5.91, 5.84 5.82, 6.34 5.82 C 6.42 5.82, 6.51 5.82, 6.56 5.82 C 5.33 5.15, 4.11 3.93, 4.16 2.41 L 4.19 2.18 C 6.62 3.11, 9.08 4.16, 11.37 5.46 C 12.15 5.91, 12.85 6.59, 13.49 7.24 C 14.38 4.75, 15.61 1.7, 17.88 0.2 C 17.85 0.54, 17.68 0.83, 17.46 1.08 C 18.04 0.52, 18.82 0.12, 19.63 0.01 C 19.55 0.63, 18.69 0.97, 18.15 1.16 C 18.85 0.94, 19.8 0.46, 20.5 0.46 C 20.7 0.46, 20.92 0.52, 20.92 0.77 C 20.92 1.28, 18.99 1.7, 18.49 1.9 C 21.67 1.56, 24.02 4.52, 24.58 7.38 C 24.91 7.49, 25.25 7.55, 25.58 7.55 C 26.23 7.55, 27.32 7.35, 27.9 7.01 C 27.4 8.22, 26.06 8.79, 24.83 8.87 C 25.53 9.18, 26.42 9.3, 27.15 9.3 C 27.43 9.3, 27.73 9.27, 28.01 9.21 Z" fill="#ffffff" />
</svg>